<svg width="457" height="102" viewBox="0 0 457 102" fill="none" xmlns="http://www.w3.org/2000/svg">
<path d="M446.252 101.832C439.468 101.832 436.332 97.096 436.78 86.728H443.884C443.5 92.808 444.268 95.048 446.444 95.048C448.172 95.048 449.196 93.704 449.196 91.016V90.632C449.196 86.6 447.276 84.104 444.972 81.608L442.348 78.984C439.596 76.104 437.228 72.328 437.228 66.824V65.352C437.228 59.336 441.068 55.368 447.084 55.368C453.612 55.368 456.876 60.296 456.428 69.384H449.452C449.644 63.88 448.684 62.152 446.764 62.152C445.164 62.152 444.268 63.368 444.268 65.608V65.864C444.268 69 445.932 71.368 447.852 73.416L450.604 76.168C453.932 79.496 456.62 83.208 456.62 89.864V91.272C456.62 97.864 452.268 101.832 446.252 101.832Z" fill="#FA453D"/>
<path d="M409.725 101V56.2H418.621L424.189 72.584H424.317V56.2H433.917V101H424.701L419.453 85.832H419.325V101H409.725Z" fill="#FA453D"/>
<path d="M396.767 101.832C391.007 101.832 386.911 97.8 386.911 90.824V66.312C386.911 59.336 391.007 55.368 396.767 55.368C402.463 55.368 406.559 59.336 406.559 66.312V90.824C406.559 97.8 402.463 101.832 396.767 101.832ZM396.767 94.856C398.239 94.856 399.199 93.768 399.199 90.824V66.312C399.199 63.432 398.239 62.344 396.767 62.344C395.295 62.344 394.335 63.432 394.335 66.312V90.824C394.335 93.768 395.295 94.856 396.767 94.856Z" fill="#FA453D"/>
<path d="M376.108 101V56.2H383.468V101H376.108Z" fill="#FA453D"/>
<path d="M353.616 101V67.976H346.64V56.2H373.52V67.976H366.544V101H353.616Z" fill="#FA453D"/>
<path d="M336.733 101V56.2H344.093V101H336.733Z" fill="#FA453D"/>
<path d="M305.345 101V56.2H320.385C327.361 56.2 333.633 60.296 333.633 70.344V86.856C333.633 96.264 327.361 101 320.385 101H305.345ZM318.273 90.12H319.297C320.705 90.12 320.705 89.224 320.705 86.92V70.28C320.705 67.976 320.705 67.08 319.297 67.08H318.273V90.12Z" fill="#FA453D"/>
<path d="M278.162 101V56.2H287.058L292.626 72.584H292.754V56.2H302.354V101H293.138L287.89 85.832H287.762V101H278.162Z" fill="#FA453D"/>
<path d="M265.205 101.832C259.445 101.832 255.349 97.8 255.349 90.824V66.312C255.349 59.336 259.445 55.368 265.205 55.368C270.901 55.368 274.997 59.336 274.997 66.312V90.824C274.997 97.8 270.901 101.832 265.205 101.832ZM265.205 94.856C266.677 94.856 267.637 93.768 267.637 90.824V66.312C267.637 63.432 266.677 62.344 265.205 62.344C263.733 62.344 262.773 63.432 262.773 66.312V90.824C262.773 93.768 263.733 94.856 265.205 94.856Z" fill="#FA453D"/>
<path d="M239.431 101.96C229.639 101.96 224.839 96.584 224.839 86.856V70.344C224.839 60.616 229.511 55.24 239.495 55.24C248.583 55.24 253.255 59.72 252.871 74.504L240.455 74.632C240.519 67.464 240.135 66.376 239.047 66.376C238.279 66.376 237.767 66.888 237.767 68.616V88.52C237.767 90.248 238.279 90.824 238.983 90.824C240.327 90.824 240.519 88.776 240.455 81.992H252.935C253.255 97.288 248.519 101.96 239.431 101.96Z" fill="#FA453D"/>
<path d="M185.283 101V56.2H200.323C207.299 56.2 213.571 60.296 213.571 70.344V86.856C213.571 96.264 207.299 101 200.323 101H185.283ZM198.211 90.12H199.235C200.643 90.12 200.643 89.224 200.643 86.92V70.28C200.643 67.976 200.643 67.08 199.235 67.08H198.211V90.12Z" fill="#FA453D"/>
<path d="M158.1 101V56.2H166.996L172.564 72.584H172.692V56.2H182.292V101H173.076L167.828 85.832H167.7V101H158.1Z" fill="#FA453D"/>
<path d="M133.448 101L140.296 56.072H149.256L156.04 101H148.616L147.784 94.152H141.384L140.616 101H133.448ZM142.152 87.304H147.016L144.648 66.184H144.52L142.152 87.304Z" fill="#FA453D"/>
<path d="M112.502 101.832C105.718 101.832 102.582 97.096 103.03 86.728H110.134C109.75 92.808 110.518 95.048 112.694 95.048C114.422 95.048 115.446 93.704 115.446 91.016V90.632C115.446 86.6 113.526 84.104 111.222 81.608L108.598 78.984C105.846 76.104 103.478 72.328 103.478 66.824V65.352C103.478 59.336 107.318 55.368 113.334 55.368C119.862 55.368 123.126 60.296 122.678 69.384H115.702C115.894 63.88 114.934 62.152 113.014 62.152C111.414 62.152 110.518 63.368 110.518 65.608V65.864C110.518 69 112.182 71.368 114.102 73.416L116.854 76.168C120.182 79.496 122.87 83.208 122.87 89.864V91.272C122.87 97.864 118.518 101.832 112.502 101.832Z" fill="#FA453D"/>
<path d="M73.3516 101V56.2H82.4396L87.1756 81.48H87.2396L91.7196 56.2H100.104V101H93.0636V77.768H92.8716L89.0956 101H84.4876L80.5836 77.768H80.4556V101H73.3516Z" fill="#FA453D"/>
<path d="M70.725 101H60.549L57.285 86.664H56.517V101H46.725V56.2H57.541C64.773 56.2 69.637 60.808 69.637 67.784V75.08C69.637 78.472 68.485 81.352 66.437 83.336L70.725 101ZM56.517 65.352V77.512H57.541C59.077 77.512 59.781 76.616 59.781 74.12V68.744C59.781 66.248 59.077 65.352 57.541 65.352H56.517Z" fill="#FA453D"/>
<path d="M22.725 101V56.2H43.973V65.544H32.517V74.12H43.461V83.336H32.517V91.656H44.165V101H22.725Z" fill="#FA453D"/>
<path d="M6.848 101V63.24H0.895996V56.2H20.224V63.24H14.208V101H6.848Z" fill="#FA453D"/>
<path d="M371.303 46V12.976H364.328V1.20001H391.207V12.976H384.232V46H371.303Z" fill="#FA453D"/>
<path d="M354.42 46V1.20001H361.78V46H354.42Z" fill="#FA453D"/>
<path d="M330.287 46V1.20001H351.535V10.544H340.079V19.696H350.959V28.912H340.079V46H330.287Z" fill="#FA453D"/>
<path d="M306.287 46V1.20001H327.535V10.544H316.079V19.12H327.023V28.336H316.079V36.656H327.727V46H306.287Z" fill="#FA453D"/>
<path d="M278.912 46V1.20001H287.808L293.376 17.584H293.504V1.20001H303.104V46H293.888L288.64 30.832H288.512V46H278.912Z" fill="#FA453D"/>
<path d="M254.912 46V1.20001H276.16V10.544H264.704V19.12H275.648V28.336H264.704V36.656H276.352V46H254.912Z" fill="#FA453D"/>
<path d="M232.164 46V1.20001H242.02C248.292 1.20001 252.004 4.59201 252.004 11.312V14.832C252.004 18.864 250.596 21.808 248.164 23.6V23.728C250.66 25.392 252.132 28.272 252.132 32.368V35.888C252.132 42.544 248.292 46 242.084 46H232.164ZM239.524 20.464H241.572C243.62 20.464 244.644 19.248 244.644 16.112V12.272C244.644 9.13601 243.62 7.92001 241.572 7.92001H239.524V20.464ZM239.524 39.088H241.636C243.748 39.088 244.708 37.872 244.708 34.672V31.344C244.708 28.144 243.748 26.992 241.636 26.992H239.524V39.088Z" fill="#FA453D"/>
<path d="M199.162 46V1.20001H220.41V10.544H208.954V19.12H219.898V28.336H208.954V36.656H220.602V46H199.162Z" fill="#FA453D"/>
<path d="M183.181 46.96C173.389 46.96 168.589 41.584 168.589 31.856V15.344C168.589 5.61599 173.261 0.23999 183.245 0.23999C192.333 0.23999 197.005 4.71999 196.621 19.504L184.205 19.632C184.269 12.464 183.885 11.376 182.797 11.376C182.029 11.376 181.517 11.888 181.517 13.616V33.52C181.517 35.248 182.029 35.824 182.733 35.824C184.077 35.824 184.269 33.776 184.205 26.992H196.685C197.005 42.288 192.269 46.96 183.181 46.96Z" fill="#FA453D"/>
<path d="M141.662 46V1.20001H150.558L156.126 17.584H156.254V1.20001H165.854V46H156.638L151.39 30.832H151.262V46H141.662Z" fill="#FA453D"/>
<path d="M117.01 46L123.858 1.07199H132.818L139.603 46H132.178L131.346 39.152H124.947L124.178 46H117.01ZM125.715 32.304H130.579L128.21 11.184H128.083L125.715 32.304Z" fill="#FA453D"/>
<path d="M116.225 46H106.049L102.785 31.664H102.017V46H92.225V1.20001H103.041C110.273 1.20001 115.137 5.80801 115.137 12.784V20.08C115.137 23.472 113.985 26.352 111.937 28.336L116.225 46ZM102.017 10.352V22.512H103.041C104.577 22.512 105.281 21.616 105.281 19.12V13.744C105.281 11.248 104.577 10.352 103.041 10.352H102.017Z" fill="#FA453D"/>
<path d="M76.391 46.96C68.647 46.96 63.719 42.544 63.719 33.84V1.20001H75.111V34.096C75.111 35.568 75.687 36.528 76.519 36.528C77.415 36.528 77.927 35.568 77.927 34.096V1.20001H89.319V33.84C89.319 42.544 84.263 46.96 76.391 46.96Z" fill="#FA453D"/>
<path d="M50.8145 46.832C44.0305 46.832 40.8945 42.096 41.3425 31.728H48.4465C48.0625 37.808 48.8305 40.048 51.0065 40.048C52.7345 40.048 53.7585 38.704 53.7585 36.016V35.632C53.7585 31.6 51.8385 29.104 49.5345 26.608L46.9105 23.984C44.1585 21.104 41.7905 17.328 41.7905 11.824V10.352C41.7905 4.33598 45.6305 0.367981 51.6465 0.367981C58.1745 0.367981 61.4385 5.29598 60.9905 14.384H54.0145C54.2065 8.87998 53.2465 7.15198 51.3265 7.15198C49.7265 7.15198 48.8305 8.36798 48.8305 10.608V10.864C48.8305 14 50.4945 16.368 52.4145 18.416L55.1665 21.168C58.4945 24.496 61.1825 28.208 61.1825 34.864V36.272C61.1825 42.864 56.8305 46.832 50.8145 46.832Z" fill="#FA453D"/>
<path d="M14.2875 46V1.20001H23.1835L28.7515 17.584H28.8795V1.20001H38.4795V46H29.2635L24.0155 30.832H23.8875V46H14.2875Z" fill="#FA453D"/>
<path d="M1.40796 46V1.20001H11.264V46H1.40796Z" fill="#FA453D"/>
</svg>
